<svg xmlns="http://www.w3.org/2000/svg" viewBox="0 0 386.01 244.16"><defs><style>.cls-1{fill:#27aae1;}.cls-2{fill:#1c75bc;}.cls-2,.cls-3,.cls-4{stroke:#2b3990;stroke-miterlimit:10;stroke-width:5px;}.cls-3{fill:none;}.cls-4{fill:#fff;}</style></defs><g id="Layer_2" data-name="Layer 2"><path class="cls-1" d="M80.56,13.9c4.37,4.19,9.77,4.53,15.57,4.56a130.11,130.11,0,0,0,19.4-1.55l-8.47-3.45A182.52,182.52,0,0,1,118.35,44.8c2.46,9.33,16.93,5.37,14.47-4A203.84,203.84,0,0,0,120,5.89c-1.53-3.25-5.36-3.89-8.47-3.44a103.62,103.62,0,0,1-11.53,1c-1.64.05-7.62,1-8.84-.13C84.2-3.39,73.58,7.2,80.56,13.9Z"/><path class="cls-1" d="M78.92,18c3.62,14,19.89,12.48,31.23,12.67l-7.5-7.5c-1.39,11.66,5.77,21.27,6.61,32.51l12.8-5.3L106.54,33.15c-2.45-2.71-4.81-5.59-7.48-8.1-1.61-1.52-5.76-3.62-6.61-5.22l1,3.79,0-1.19c-.31-9.63-15.28-9.67-15,0,.38,13.23.83,26.47,1.13,39.7.3,13.07-.53,26-1.13,39a632.13,632.13,0,0,0,1.46,80.37c.78,9.56,15.79,9.64,15,0a632.13,632.13,0,0,1-1.46-80.37c.59-12.71,1.42-25.32,1.15-38.06C94.3,49.55,93.83,36,93.44,22.43h-15c.13,4.23,1.91,7.13,5.22,9.64a63.07,63.07,0,0,1,9,8.1Q102.09,50.57,111.46,61c4.2,4.66,13.28,1.14,12.8-5.3-.83-11-7.93-21.43-6.61-32.51.49-4.08-3.83-7.44-7.5-7.5-2.65,0-16,1.17-16.77-1.66C91,4.67,76.51,8.63,78.92,18Z"/><path class="cls-1" d="M343.92,224.2q-40.69-1.59-81.4.69c-9.59.54-9.72,14.77,0,15q29.58.71,59.17.92c9.65.07,9.66-14.93,0-15q-29.6-.21-59.17-.92v15q40.67-2.28,81.4-.69c9.65.37,9.64-14.63,0-15Z"/><path class="cls-1" d="M332.64,219.84c-7.74.49-15.88-4.3-22.73-7.45-7.73-3.55-15.32-7.4-22.82-11.4-7.24-3.86-14.39-7.87-21.53-11.9-6.56-3.71-13.55-7.15-19.36-12S235,166.64,228.86,162s-12.83-9-18.75-14.21c-12-10.47-22-23-31.92-35.34-2.56-3.19-7.94-2.61-10.61,0-3.16,3.09-2.52,7.46,0,10.6,10.29,12.84,20.67,25.8,33.25,36.5,6.5,5.53,13.69,10.1,20.39,15.36,6.48,5.08,12,11.26,18.59,16.17s14.23,8.78,21.47,12.86c7.7,4.33,15.42,8.61,23.26,12.69s15.75,7.94,23.84,11.46c7.68,3.34,15.66,7.34,24.26,6.79,9.59-.62,9.65-15.63,0-15Z"/><path class="cls-1" d="M122.41,53.05a429.28,429.28,0,0,0,39.5,66.58c2.39,3.3,6.5,4.83,10.27,2.69,3.26-1.86,5-7,2.69-10.26a428.5,428.5,0,0,1-39.5-66.58c-4.16-8.71-17.1-1.11-13,7.57Z"/><path class="cls-1" d="M263.35,226.45c-12.65-.23-25-1-37.42-3.37-11.89-2.3-23.78-4.86-36-4.87-8.24,0-10.46,13-2,14.73l17.71,3.67,2-14.73c-10.48-.64-20.7-4.22-30.72-7.16-9.58-2.82-19.13-5.79-28.52-9.23-18.33-6.72-36.17-15.53-51-28.39-7.26-6.29-17.92,4.27-10.6,10.61,16.48,14.27,35.74,24.08,56.08,31.67,9.88,3.69,20,6.83,30.08,9.8,11.38,3.35,22.78,7,34.7,7.7,8.37.51,10.29-13,2-14.73L192,218.48l-2,14.73c12.12,0,23.79,2.86,35.63,5,12.53,2.29,25,3,37.75,3.21,9.66.17,9.66-14.83,0-15Z"/><path class="cls-1" d="M112.88,62.35,126.6,91.46c4.13,8.75,17,1.12,13-7.58A284.45,284.45,0,0,0,112.32,37C108.9,32.2,100,31.9,98.61,38.77a83.36,83.36,0,0,0,8.15,56.73c4,7.5,16.09,2.37,13.71-5.78q-6.14-21-13.87-41.57c-2.38-6.3-12.82-7.9-14.47,0A119.2,119.2,0,0,0,90.4,87.66c1.22,9.52,14,9.74,15,0,1.84-17.43,1.67-34.94,1.42-52.44-.14-9.67-14.72-9.65-15,0q-.55,19,0,38c.28,9.69,14.45,9.61,15,0l2.06-36.54h-15L91.8,80c-.7,14.35-1.73,28.74-1,43.11.52,9.74,14.12,9.54,15,0a234.24,234.24,0,0,0,.39-37.83C105.65,77,94.11,75,91.5,83.31c-7.48,24-14.72,48.22-15.2,73.52-.16,8.37,12.78,10.32,14.73,2l8.07-34.29-14.73-2q1.42,19.33,3.8,38.57c.46,3.71,2.5,6.89,6.5,7.37,3.35.4,7.65-1.64,8.23-5.38A136.21,136.21,0,0,0,104.62,137c-.35-9.65-14.63-9.66-15,0l-.28,7.17c-.37,9.66,14.63,9.64,15,0l.28-7.17h-15a116.59,116.59,0,0,1-1.18,22.09l14.73,2q-2.39-19.25-3.8-38.57c-.59-8-12.69-10.71-14.74-2l-8.06,34.29,14.73,2C91.75,132.9,98.89,110,106,87.3l-14.73-2a234.24,234.24,0,0,1-.39,37.83h15c-.78-14.37.25-28.76,1-43.11l2.09-43.33c.47-9.66-14.46-9.6-15,0L91.83,73.23h15q-.57-19,0-38h-15c.25,17.5.42,35-1.42,52.44h15a106.72,106.72,0,0,1,1.2-35.52H92.13Q99.87,72.66,106,93.71l13.71-5.78a66.81,66.81,0,0,1-6.64-45.17L99.37,44.55A285.55,285.55,0,0,1,126.6,91.46l13-7.58-13.72-29.1c-4.11-8.73-17-1.12-13,7.57Z"/><path class="cls-1" d="M106.36,61.49a252,252,0,0,0,19.76,53.63c3.95,7.87,15.51,2.21,13.71-5.78a151.83,151.83,0,0,0-15.78-40.87c-4.36-7.75-15.26-2.27-13.71,5.78a98.9,98.9,0,0,0,17.79,40.44c3.46,4.63,12.32,5.19,13.71-1.79a140.41,140.41,0,0,0,2.33-39.66l-14.73,2a151.22,151.22,0,0,0,10,33.05c1.45,3.43,6.31,4.36,9.37,3.07,3.73-1.57,4.85-5.07,4.34-8.85a124.34,124.34,0,0,0-6.26-25.62c-3.22-9-17-5.46-14.46,4A390.39,390.39,0,0,0,151,133.36c3.49,8,15.65,2.17,13.71-5.78a151.69,151.69,0,0,0-9.49-27.07l-13,7.57,13.58,21c4.46,6.9,16.28,2.67,13.71-5.78A84.23,84.23,0,0,0,160.33,103c-5.15-8.22-17.32-1-13,7.57a142.85,142.85,0,0,0,22.22,31.84c4.91,5.35,15.12-.21,12.54-7.29A29.22,29.22,0,0,0,171.44,121c-6.62-4.89-13.15,4.26-10.27,10.26a86,86,0,0,0,22,28.43c7.5,6.32,16.56-3.09,10.61-10.61a105.1,105.1,0,0,0-18.17-18c-6.55-5.06-15.85,1-11.78,9.09a84.15,84.15,0,0,0,38.7,37.91c6,2.88,15.09-3.59,10.26-10.27a127.31,127.31,0,0,0-30.35-29.95c-5.21-3.66-13.22,2.46-11,8.47a56.84,56.84,0,0,0,18.36,25.8c3,2.32,6.64,3.07,9.85.59,2.67-2.07,4.18-6.68,1.93-9.68a362.3,362.3,0,0,0-38.46-43.54c-5.93-5.69-16.7,1.79-11.78,9.09A348.38,348.38,0,0,0,193.6,180c6,6.05,16-1.67,11.78-9.09a255.73,255.73,0,0,0-48.71-61.6c-4.67-4.34-12.82-1.38-12.8,5.3,0,11.85,5.15,22.63,15,29.32,5.06,3.42,13.57-2.4,11-8.47-10.92-26-30.35-47.53-55.74-60.08-3.9-1.92-10.17-.63-11,4.48-1.58,9.61,4,17.78,8.54,25.83a275.69,275.69,0,0,0,15.41,24c4.69,6.56,16.2,2.9,13.71-5.78a155.3,155.3,0,0,0-29-55.27c-2.06-2.54-6.43-2.73-9.09-1.18-3.09,1.81-4,5.15-3.44,8.47a111,111,0,0,0,27.05,56.73c5.31,6,14-.48,12.53-7.3a56.88,56.88,0,0,0-6.24-16.55c-2.75-4.8-6.6-10.66-11.5-13.46-14.06-8-19.22,12-20.46,21.6-1.43,11-1.11,27.52,6.61,36.41,4.15,4.77,10.89,6.54,16,2.08,4.56-4,5.17-11.71,6-17.3a92.27,92.27,0,0,0,.81-20.27c-.43-5.44-.4-13-5.93-16-11.72-6.22-21.27,15.87-24.55,23.83A75.79,75.79,0,0,0,94.7,143c-.88,5.69-2.07,12.45,0,18,2.29,6.13,8.66,8.73,14.69,6.62s9.44-7.78,11.44-13.43c2.22-6.27,2.9-15.19-.53-21.18a10.58,10.58,0,0,0-16.79-2.35C93.48,140.1,91,156.11,93.6,169c.89,4.34,7.27,7.35,11,4.48,7-5.33,11.47-13,11-22-.23-3.92-1.27-7.94-4.35-10.56a9.26,9.26,0,0,0-12.76.69c-5.55,5.61-9.41,14.95-8.55,22.85.89,8.15,7.76,15.08,16.37,12.54,7.73-2.28,11.3-11.88,8.73-19.07-3.81-10.66-16.77-7.9-19.52,1.91-1.2,4.29-.58,9.32,2.65,12.58A10,10,0,0,0,111,173.57c7.12-5.23,4.66-18.49-2.14-22.94-9.52-6.22-17.71,2.52-18.8,11.82-1,8.39,4.33,22.13,15.17,16.12,7.63-4.23,10.65-18.49,5-25.23-7.27-8.68-17.38,1.11-21.11,8s-7,19.41,1.08,24.68c8,5.16,17.59-1.73,21.22-8.89,3.8-7.47,2.79-20.45-8.07-20.56-9.25-.09-14.17,12-13.5,19.85.42,4.84,3.4,9.61,8.1,11.3,5,1.81,10,.08,14.66-2.14,7.9-3.8,14.23-10.75,18.48-18.31,8.79-15.62,13.78-39.68,3.3-55.57-3.27-5-9.63-4.67-12.95,0a104.9,104.9,0,0,0-15.93,33.7c-2.4,9-8.47,29.69,5.06,32.43,7,1.4,11.6-4.74,15.28-9.61a77.45,77.45,0,0,0,9-15.55,81.62,81.62,0,0,0,6.85-35.78,7.59,7.59,0,0,0-12.8-5.3c-8,7.68-13.11,17.41-16.9,27.75-3.09,8.43-9.66,22.31-3.61,30.59,2.48,3.4,6.35,4.73,10.26,2.69,9.33-4.85,13.36-15.79,16.05-25.35A87.76,87.76,0,0,0,137.42,114c-.79-7.16-9.75-10.51-14-3.79a81.42,81.42,0,0,0-10.4,60.73c1.27,5.86,8.57,6.82,12.54,3.31,15.35-13.55,18.63-34.81,19.5-54.22.27-6-8.76-10.53-12.81-5.3A118.14,118.14,0,0,0,115.47,144a103,103,0,0,0-4.85,15.93c-1.09,5-2.64,10.85-1.19,15.92s7,9.3,12.34,7.06c4.62-2,8.57-7.5,11.32-11.51a49.34,49.34,0,0,0,8.33-30.61c-.42-6.9-7.72-9.36-12.8-5.3-8.8,7-18.85,23.11-12.63,34.56,6.78,12.5,24.58,5.59,26.72-6.53,1.28-7.25-2-14.82-6.13-20.66-4.86-6.9-11.85-7.91-19.26-4.39C105.57,144,91.6,154.67,89.2,168.28s7.42,25.64,19.84,29.94c7.27,2.52,15.31,2.09,22.74.64,6.63-1.3,14-3.39,19.45-7.58,10.68-8.29,12.22-25,9.36-37.31a41,41,0,0,0-8.73-17.63c-5.26-5.89-12.21-5.79-18.82-2.24-11.31,6.06-23.42,17.57-28.78,29.34s-1.68,28.28,12.82,30.73c13.77,2.33,25.84-9,30.05-21.22,3.44-9.94,2.15-32.74-13.89-26.52-11.75,4.56-20.14,17.26-19.38,29.92.4,6.61,3.29,13.19,9.53,16.11,6,2.79,14.37,1.76,20.59.24,13.73-3.35,19.53-16.06,21.69-28.95,1-5.94,1.08-12.28-2.21-17.58a16.55,16.55,0,0,0-15.69-7.61C132.52,140,127.32,155.3,126,168.38c-.65,6.22,1.59,13.47,8.34,15.26,7.1,1.89,12.65-3.68,16.15-9.11a38.15,38.15,0,0,0,2-36.79c-3.51-7.07-11.13-9.73-17.93-5.25-5.18,3.41-8.18,9.47-8.7,15.55a21.75,21.75,0,0,0,5.55,16.31c3,3.55,9.71,2.59,11.78-1.51a87.48,87.48,0,0,0,9.52-37.95c.15-7.5-10.27-10.12-14-3.78a23.14,23.14,0,0,0,.68,24.87c2.78,4,8.08,5.07,11.78,1.52,5.86-5.62,5.71-14.4.24-20.19-3.06-3.25-9.77-2.86-11.78,1.52-14.16,31,29.27,42.54,51.08,46.68,8,1.53,13.51-9.22,5.78-13.71a142,142,0,0,0-32.8-13.87c-7-2-13,7.42-7.29,12.54a172.9,172.9,0,0,0,45.26,29.71c7.53,3.38,15.19-5.19,9.09-11.78a134.67,134.67,0,0,0-43.8-31.47c-5.89-2.63-12.61,1.68-11,8.47,2.5,10.68,11.5,17.46,21.05,21.73,12.27,5.5,25.16,9.83,37.72,14.61,5.29,2,11-4.09,9.23-9.22a29.78,29.78,0,0,0-19-19.22c-2.27-.79-5.77,0-7.3,1.92-14.5,18.3,31.6,28.93,42.28,31.24,7,1.51,13-7.12,7.29-12.54A129.57,129.57,0,0,0,224.78,167c-6.8-4.07-13.43,3.82-10.26,10.26,10.15,20.7,31.82,30.07,52,38.16,7.11,2.85,12.48-7.67,7.3-12.53a167.35,167.35,0,0,0-37.74-26.76c-6.33-3.27-14.5,3.58-10.26,10.26,7.24,11.4,19.11,18.31,30.55,24.89A331.27,331.27,0,0,0,296,230.43c6,2.45,12-5.9,8.47-11-5.41-7.79-14.21-12.68-23.87-11.48-6.26.78-10.13,7.71-5.3,12.8a40.13,40.13,0,0,0,21,11.81c9.53,2,13-11.13,4-14.47a219.76,219.76,0,0,0-52-12.11c-7.38-.82-10.23,10.81-3.78,14a95.37,95.37,0,0,0,37.79,9.81c9.67.48,9.57-14.38,0-15A190,190,0,0,0,244.78,216c-9.46,1.26-9.81,14.07,0,15q9,.85,18.13.93c8.62.06,10-12.22,2-14.74a160.35,160.35,0,0,0-49.31-7.36c-5.44,0-9.67,6.43-6.48,11.28,3.59,5.46,11,8,16.66,3.85,5-3.64,4.9-11.9-1.79-13.71q-21.79-5.9-44.09-9.58c-9.38-1.55-13.36,11.46-4,14.47a405.9,405.9,0,0,0,46,11.86c8.26,1.62,13.13-9,5.78-13.71a21.08,21.08,0,0,0-6.62-2.82l-4,14.46A246,246,0,0,0,270,231.86c9.76,0,9.52-14.28,0-15-14-1.05-28-2.54-41.88-4.55-9.27-1.34-13.59,11.87-4,14.46a178.31,178.31,0,0,0,53,6.1c8.42-.3,10.22-12.25,2-14.73a342,342,0,0,0-48.5-10.88l-2,14.74a104,104,0,0,0,20-.4c5.51-.64,11.07-8.32,5.3-12.8-7.43-5.76-16-7-25-8.51-9.6-1.61-19.26-2.92-28.94-4-8.65-1-9.78,12.37-2,14.73a117.33,117.33,0,0,0,35.76,5c6.93-.11,10.88-10.73,3.79-14A387.1,387.1,0,0,0,176.4,179.9c-8-2.14-13.51,9.72-5.78,13.71a140,140,0,0,0,52.76,15.14c7.87.67,9.57-10.26,3.78-14A65.83,65.83,0,0,0,187,184.46c-8.68.61-9.88,11.67-2,14.73a107.9,107.9,0,0,0,49.87,6.74c7.56-.77,10-9.5,3.79-14-13.39-9.64-29.61-12.9-45.79-10.57-5.42.78-7.39,9.17-3.31,12.54a72.29,72.29,0,0,0,27.17,14.3c6.12,1.67,12-5.41,8.47-11-8.5-13.35-22.37-21.08-37.33-25.18-6.45-1.77-16-4.84-22.67-2.87-8.34,2.49-11,14.44-2.73,18.84,8.52,4.54,16.1-8.41,7.57-13l2.42,3.53-1,3.79c-.64,1.49-1.93.57-.55,1.41.72.44,2.71.44,3.62.6,2.18.4,4.35.85,6.51,1.37a79.6,79.6,0,0,1,12.19,3.87c7.64,3.25,14.55,8.09,19,15.16l8.47-11a54.53,54.53,0,0,1-20.54-10.44l-3.31,12.54c12.22-1.76,24.33,1.93,34.23,9.05l3.78-14A97.92,97.92,0,0,1,189,184.72l-2,14.74a52.18,52.18,0,0,1,32.61,8.27l3.79-14a121.22,121.22,0,0,1-45.18-13.09l-5.78,13.7A364.64,364.64,0,0,1,230.05,215l3.78-14a103,103,0,0,1-31.77-4.48l-2,14.74c7.73.86,15.43,1.89,23.1,3.15,6,1,15.28,1.1,20.25,5l5.31-12.81a104,104,0,0,1-20,.4c-8.32-.64-10.39,13.48-2,14.73a344,344,0,0,1,48.5,10.87l2-14.73a163.82,163.82,0,0,1-49-5.56l-4,14.46c15.23,2.21,30.52,3.94,45.87,5.09v-15a226.75,226.75,0,0,1-48.93-5.37c-9.39-2.09-13.41,12.2-4,14.46a7.45,7.45,0,0,1,3,1.32l5.78-13.71a405.94,405.94,0,0,1-46-11.87l-4,14.47A447.79,447.79,0,0,1,220,225.74L218.2,212l3.87,1.53-6.48,11.29a146.35,146.35,0,0,1,45.32,6.83l2-14.73q-9.09-.07-18.13-.93v15a190,190,0,0,1,37.47-1.27v-15A76.69,76.69,0,0,1,252,207l-3.79,14a203.75,203.75,0,0,1,48,11.58l4-14.47a26.21,26.21,0,0,1-14.34-7.94l-5.31,12.8c4.22-.52,8.35.35,10.92,4L300,216a299.82,299.82,0,0,1-34.34-16.72c-9.49-5.37-20.78-11-26.8-20.43l-10.26,10.26a153,153,0,0,1,34.7,24.41l7.3-12.53c-16.69-6.68-34.73-14.22-43.09-31.27l-10.26,10.26a110.94,110.94,0,0,1,19.3,14.59L243.8,182A172.47,172.47,0,0,1,224.32,177a56,56,0,0,1-8.43-3.62c-2-1.06-6-2.87-7-4.93l1,3.78-.07-1-2.2,5.3.55-.7-7.29,1.93a13.81,13.81,0,0,1,8.58,8.74l9.22-9.22c-10.71-4.08-21.52-8-32.15-12.27-6.51-2.62-14.4-6.16-16.15-13.6l-11,8.47A123.93,123.93,0,0,1,200.11,189l9.08-11.78A160.92,160.92,0,0,1,167,149.86l-7.29,12.54a125.2,125.2,0,0,1,29.21,12.36l5.78-13.71a146.31,146.31,0,0,1-29.35-8.65c-6.21-2.62-16.7-7.39-12.76-16l-11.78,1.52a2.85,2.85,0,0,1-.24-1l11.78,1.51c-2.21-3.16-2.68-6.32-.69-9.73l-14-3.79a70.22,70.22,0,0,1-7.47,30.38L142,153.75c-1.28-1.49-2.07-8.69.7-8.51l-3.79-1c2.85,1.61,2.59,10.4,2.24,13.06a23.47,23.47,0,0,1-1.84,6.52,22.75,22.75,0,0,1-2.17,3.77l-.59.8c-1.17,1.08-1.25,1.26-.22.54l3.79,1c1.31.57.06,2,.74.26a14.46,14.46,0,0,0,.23-2.3,41.59,41.59,0,0,1,1.53-7.32c.84-2.63,2.92-7.28,6.45-7.14,5.6.22.12,15.22-1,17.83-1.73,4.15-4.45,6.24-8.82,7.13-2.86.59-8.89,1.93-10-.61-3-6.8,4.34-16.17,10.62-17.74h-4c-4.75-.92-2.05-3.31-2.19-.67,0,.54.21,1.71.23,2.09a17.51,17.51,0,0,1-.43,4.84,19.17,19.17,0,0,1-4.51,8.72c-3.5,3.79-12.3,7.67-12.3-.61,0-7.64,8.64-15.15,13.79-19.93,1.31-1.21,2.65-2.42,4.07-3.5,1.58-1.2,4.12-2.14,5.41-3.55.65-.7,2.57-.48.47-1.45.54.25,1.08,1.31,1.39,1.74a27.06,27.06,0,0,1,2.78,5.06c2.91,7,3.37,15.78.26,22.83s-14.54,8.91-21.39,9.34c-7.48.48-16.34-1.79-19.15-9.63-2.59-7.2,5.39-14,10.43-17.76a60.57,60.57,0,0,1,6.43-4.19c1-.57,2-1.07,3-1.62,1-.27,1-.54-.08-.81l.75,1.2c.75,2.46,2.72,4.24,3.1,6.93a10.37,10.37,0,0,1-.05,2.23c0,.18-.74.46-.74.45.26,1-2.48-3.69.6,0,.9,1.1,1.12,1.14,1.57.59.87-1,.89-4.16,1.46-5.58A26.59,26.59,0,0,1,139.23,146l-12.81-5.3a35.55,35.55,0,0,1-12.84,30l7.29-1.93c3.16,1,2.58,4.31,3.27,0,.35-2.19.81-4.37,1.31-6.54a103.11,103.11,0,0,1,4.19-13.52,93.53,93.53,0,0,1,13.25-23.41l-12.8-5.3c-.69,15.56-2.77,32.72-15.11,43.62l12.53,3.31a66,66,0,0,1,8.89-49.17l-14-3.79a76.33,76.33,0,0,1-1.25,25.84c-1.5,6.43-3.62,16.54-10,19.88l10.26,2.69c-1.31-1.8,1.28-7.11,1.91-9.2,1.14-3.81,2.35-7.6,3.77-11.32,2.83-7.37,6.76-14.17,12.48-19.65l-12.8-5.3A68.18,68.18,0,0,1,123,142.33a63.35,63.35,0,0,1-5.48,11.56c-1.25,2.09-4.47,8.73-6.92,9.5h4q3.12,4.68,2.76.67c.09-1.12.21-2.25.35-3.37.28-2.12.68-4.24,1.12-6.34a97.48,97.48,0,0,1,3.44-12.21,92.68,92.68,0,0,1,12.16-22.84H121.43c6.74,10.22,3.43,25.71-1.19,36.25a36.51,36.51,0,0,1-9.95,13.84c-.93.77-6.34,3-6.65,3.83a2.84,2.84,0,0,1,1.07,2l.25-1.51a21.25,21.25,0,0,1,1-2.7q1-1.85-2.06.58l-3.78-1c-.3-.15-1-2-1.43-2,.56-.06-1.17,2.52-1.22,2.73-.13.44-1.16.92-1.18,1.29-.8.6-.17,1.17,1.9,1.73q2.56,3.38,2.12.11c.71-1.42.71-3.34,1.41-4.85.43-.95,2.19-4.51,3.18-4.88h-4c-2.71-.44-2.06-5.68-3-1-.11.53-.27,1.9-.84,2.17l5.78-.76,2.19,2.11-.21-1.4c.12-.29.54-3.54.56-3.52.6-1.18-.28-1.19-2.62,0q-3.31-.95-2.68.91a3.23,3.23,0,0,1,.12,1.07q-.06,3.41,3.26-3.56h4c2.71,1.27,3.34,2.61,1.87,4l-5.78.76c.09,0-3-3.17-2.61-2.3.47,1.06-3.06-.5.78-.09a1.36,1.36,0,0,1,2.22,0c.93.79,1.28,1,1,.5-.32.31.3-3.48-.21-1.54.75-2.82,2-8.5,4-9.55l-3.79,1,.94.12-5.3-2.2c-.24-.88-.28-1-.13-.4a4.38,4.38,0,0,1,.14,1.73A10.73,10.73,0,0,1,97,160.53l11,4.48a27.94,27.94,0,0,1,.27-12.57,27.58,27.58,0,0,1,2-5.64c.42-.83,2-4.52,2.93-4.71h-4c-4.1-1.21-1.43-2.35-1.9-.45-.28,1.16.21,2.75.06,4a18.12,18.12,0,0,1-1.13,4.53c-.33.8-1.34,1.91-1.44,2.72q-1.81,1.28,1.59,1.69,2.55,2.5,2.18.2c.35-.68.06-2.49.1-3.27a55.59,55.59,0,0,1,1.11-8.54A63.85,63.85,0,0,1,115,127.79a69.16,69.16,0,0,1,4-7.12c.74-1.15,1.49-2.29,2.31-3.38l.81-1.08q2-2.17.21-.6l-5.78-.75c-3.18-2.31-2.13-2.7-1.77.3.18,1.51.3,3,.39,4.56a87.26,87.26,0,0,1,0,9.15,67.15,67.15,0,0,1-.86,8c-.25,1.51-.55,3-.89,4.49l-.43,1.79q-1.71,4,2.65-.13l3.78,1c-3.26-1.5-3.89-10.2-4.2-13.45a50.37,50.37,0,0,1,1.32-17.51,38.45,38.45,0,0,1,1.22-4.09c.77-2,1.69-2.29-1.36-.94s-1.76,1.24-.09,3.35a34.05,34.05,0,0,1,2.07,3,43.73,43.73,0,0,1,6,15l12.53-7.3A97.17,97.17,0,0,1,113.7,72l-12.53,7.29a136.89,136.89,0,0,1,25.18,48.66l13.71-5.78c-4.46-6.25-8.69-12.65-12.63-19.24q-2.82-4.74-5.46-9.6c-1.1-2-4.75-7-4.34-9.44l-11,4.48c21.64,10.7,39.45,28.75,48.85,51.12l11-8.47c-5.42-3.67-7.59-10.07-7.61-16.37l-12.8,5.31a242,242,0,0,1,46.35,58.56l11.78-9.09A328,328,0,0,1,164.29,121l-11.78,9.09a338.56,338.56,0,0,1,36.12,40.5l11.77-9.08a43,43,0,0,1-14.5-19.19l-11,8.47a105.76,105.76,0,0,1,25,24.58l10.26-10.27a70.92,70.92,0,0,1-33.32-32.52L165,141.69a104.4,104.4,0,0,1,18.17,18l10.61-10.61a75.51,75.51,0,0,1-19.66-25.39l-10.27,10.27a11.26,11.26,0,0,1,3.81,5.21l12.54-7.29A128.29,128.29,0,0,1,160.33,103l-13,7.57a68.8,68.8,0,0,1,7.67,16.69l13.71-5.78-13.58-21c-5.33-8.24-16.9-1.11-13,7.57a131.62,131.62,0,0,1,8,23.49l13.71-5.78a364.48,364.48,0,0,1-17.07-48.91l-14.46,4a125.31,125.31,0,0,1,6.26,25.62l13.71-5.78a134.83,134.83,0,0,1-8.45-29.46c-1.44-8.26-15.46-6.44-14.74,2a126.27,126.27,0,0,1-1.8,35.67l13.71-1.79A88.94,88.94,0,0,1,124.8,70.26L111.1,76a137.41,137.41,0,0,1,14.26,37.29l13.71-5.78a234,234,0,0,1-18.24-50c-2.27-9.38-16.74-5.4-14.47,4Z"/><path class="cls-1" d="M150,144.27c2.27,6.25,6.53,10.26,10.94,15,4.19,4.52,6.07,10.44,8.08,16.14,2.09,5.9,4.28,11.88,8,17,3.32,4.6,8.91,8.48,10.33,14.15l7.23-9.5a45.18,45.18,0,0,1-17.71-3.3c-2.33-.91-5.66.13-7.3,1.93-5.31,5.85-7,17,1.51,21,8,3.72,17.45-4.61,17.88-12.68.44-8.23-7.23-14.82-15.29-12.53-6.89,2-14.33,7.39-15.65,14.74-1,5.36,3.33,11,9.22,9.22,6.62-2,15.08-8.54,12.34-16.46s-12.89-8.19-19.39-5.32-13.44,10.92-8.76,18.2c4.55,7.08,14.29,3.94,20.44,1.25,6.56-2.87,13.54-7.64,15-15.13,1.75-9.17-7-13.92-14.91-13-14,1.53-31.36,10.57-38.22,23.33a7.59,7.59,0,0,0,8.47,11c12-2.95,24-8.79,33-17.42,4.68-4.46,6.27-12.15-.15-16-6.23-3.75-14,1.55-19.86,4-7.73,3.26-2.13,16.86,5.78,13.71,4.41-1.76,8.48-4,9.79-9A10.07,10.07,0,0,0,165.78,183c-8.28-4.27-19.09,3.94-24.78,9.32-4.71,4.46-1.12,12.92,5.3,12.81,8.11-.15,17.64-1.24,24.88-5.21s8.9-15.25-.47-17.77c-6.87-1.85-15.51.82-21.66,3.78a41.87,41.87,0,0,0-16.34,14.48c-4,5.79,2.55,12.26,8.47,11a49.9,49.9,0,0,0,24.24-13c5.14-4.9.76-12.14-5.3-12.81a34.81,34.81,0,0,0-23.93,6.28l11,8.47,1-5.35c1.16-6-3.41-10.1-9.23-9.23a14.08,14.08,0,0,0-9,5.26l11.78,9.09a16.34,16.34,0,0,0,2-5.2c1.35-7.73-6.56-11.94-12.54-7.29a12.76,12.76,0,0,0-3.15,3.7c-5.12,8.22,7.85,15.76,12.95,7.57l.81-.67-12.54-7.3a2.41,2.41,0,0,1-.45,1.62c-3.95,7.12,6.34,16,11.78,9.09,1.12-1.43.61-1.13,2.4-1.4L133.77,191l-1,5.35c-1.11,5.77,5.22,12.61,11,8.47a22.31,22.31,0,0,1,16.36-4.23l-5.3-12.8a35.39,35.39,0,0,1-17.63,9.1l8.47,11c5-7.26,14.15-12.17,23.05-11.1l-3.78-1,.92.57-3.45-4.49.29,1,.76-5.78c.25-.54-2.52.68-3.14.87-1.44.44-2.9.8-4.37,1.12a49.5,49.5,0,0,1-9.64,1l5.3,12.8c2.44-2.3,7-6.38,10.4-5.95l-3.79-1L157,194.7l-1-3.79L157,189l5.77,13.71c2.17-.91,5.61-3.24,8-3.3l-3.78-1,1,.66-3.44-4.49.21,1.16.75-5.78c-1.81,3.92-8.52,7.11-12.18,9.1a62.55,62.55,0,0,1-15.15,5.7l8.47,11c2.72-5.06,7.78-8.17,12.64-11a42.44,42.44,0,0,1,8.13-3.75,30.17,30.17,0,0,1,4.85-1.21l1.31-.15q3.6.32-1.22-1.79v-4c-.67,4.27-9.78,7.62-13.6,7.12l3.78,1-.85-.53,3.44,4.48-.46-1.14v4c.19-1.1.63-.81,1.75-1.74l.92-.23q3.22.17-1.95-3.07v-4c-.23.61-1.66.94-2.14,1.08l9.22,9.23c.48-2.66,4.07-4,6.67-4.55h-4c-2.37-.33.58-3.35-2.29-2.68l5.78.76c.2,2.7.71,3.56,1.53,2.6l-7.3,1.93a56.63,56.63,0,0,0,21.7,3.83,7.58,7.58,0,0,0,7.23-9.49c-1.55-6.22-5.6-10.81-9.8-15.45s-6.44-9.86-8.5-15.68-4.07-12-7.53-17.19c-3.15-4.75-9.56-8.62-11.49-14-3.26-9-17.77-5.12-14.47,4Z"/><path class="cls-1" d="M370,231.22a47.4,47.4,0,0,1-19.89-2.72v4.82a21.86,21.86,0,0,1,6.56-.12,2.5,2.5,0,0,0,.66-4.91c-2.76-.46-5.76-.81-8.18.94a5.6,5.6,0,0,0-2,7.16,7.15,7.15,0,0,0,6.76,3.53c2.73-.12,6.79-1.2,5.89-4.8a2.54,2.54,0,0,0-2.41-1.84,48.81,48.81,0,0,0-7,.11l.66,4.91a41.87,41.87,0,0,1,16.42-1.75,2.52,2.52,0,0,0,2.5-2.5,2.55,2.55,0,0,0-2.5-2.5,45.62,45.62,0,0,0-17.75,1.93,2.51,2.51,0,0,0-1.79,2.74,2.48,2.48,0,0,0,2.46,2.17,48.81,48.81,0,0,1,7-.11L355,236.45l.06.22v-1.33c.21-1.32,1.06-.65.47-.68a6.26,6.26,0,0,0-.94.19,6.21,6.21,0,0,1-1.49.07c-.73-.09-1.6-.51-1.59-1.16,0,.27.14-.14.25-.27s.54-.36.63-.4a6.88,6.88,0,0,1,3.63,0l.66-4.91a26,26,0,0,0-7.88.3,2.51,2.51,0,0,0-1.84,2.41,2.6,2.6,0,0,0,1.84,2.41,51,51,0,0,0,21.21,2.9,2.56,2.56,0,0,0,2.5-2.5,2.51,2.51,0,0,0-2.5-2.5Z"/></g><g id="Layer_1" data-name="Layer 1"><rect class="cls-2" x="2.5" y="2.5" width="75" height="239.16"/><path class="cls-3" d="M385.63,234.24c-20.67,3.14-165.29,23.93-263.15-21.85C108.06,205.65,95,195,77.5,182.66"/><line class="cls-4" x1="77.5" y1="2.5" x2="120.5" y2="2.5"/><path class="cls-3" d="M118.13.79a329.88,329.88,0,0,0,89.17,142.9c68.19,64.42,145.45,84.16,177.2,90.55"/></g></svg>